<?xml version="1.0" encoding="iso-8859-1"?>
<!-- Generator: Adobe Illustrator 19.0.0, SVG Export Plug-In . SVG Version: 6.00 Build 0)  -->
<svg version="1.1" id="Layer_1" xmlns="http://www.w3.org/2000/svg" xmlnsXlink="http://www.w3.org/1999/xlink" x="0px" y="0px"
	height="50px" width="50px" viewBox="0 0 504.123 504.123" style="enable-background:new 0 0 504.123 504.123;" xml:space="preserve">
<linearGradient id="SVGID_1_" gradientUnits="userSpaceOnUse" x1="-57.9273" y1="601.4416" x2="63.1927" y2="570.0586" gradientTransform="matrix(7.8769 0 0 -7.8769 364.0537 4969.6836)">
	<stop  offset="0.012" style="stop-color:#cccccc"/>
	<stop  offset="0.519" style="stop-color:#cccccc"/>
	<stop  offset="1" style="stop-color:#404040"/>
</linearGradient>
<path style="fill:#ffb91ae0;" d="M0,348.863c0,0,93.444-98.816,235.339-43.804c170.417,66.111,213.827,39.03,268.784-11.154
	c0,0-62.527,130.615-244.894,63.724C64.614,286.249,0,348.863,0,348.863z"/>

<path style="fill:white;" d="M0,414.761c0,0,47.6-50.334,119.879-22.307c86.812,33.658,108.906,19.873,136.909-5.687
	c0,0-31.846,66.528-124.739,32.461C32.91,382.867,0,414.761,0,414.761z"/>

</svg>
