<?xml version="1.0" encoding="iso-8859-1"?>
<!-- Generator: Adobe Illustrator 16.0.0, SVG Export Plug-In . SVG Version: 6.00 Build 0)  -->
<!DOCTYPE svg PUBLIC "-//W3C//DTD SVG 1.1//EN" "http://www.w3.org/Graphics/SVG/1.1/DTD/svg11.dtd">
<svg version="1.1" id="Capa_1" xmlns="http://www.w3.org/2000/svg" xmlns:xlink="http://www.w3.org/1999/xlink" x="0px" y="0px"
	 width="85px" height="85px" viewBox="0 0 95.962 95.962" style="enable-background:new 0 0 95.962 95.962;"
	 xml:space="preserve">
<g>
	<path fill="#feaf00" d="M78.043,29.354l-23.919,2.252L74.192,0H37.169L16.153,54.857c-0.216,0.556-0.129,1.186,0.236,1.658
		c0.361,0.479,0.942,0.731,1.539,0.668l24.902-2.447L27.499,93.605c-0.315,0.797,0.004,1.701,0.747,2.129
		c0.27,0.149,0.563,0.228,0.854,0.228c0.514,0,1.024-0.231,1.36-0.667l49.104-63.17c0.419-0.54,0.478-1.286,0.149-1.884
		C79.382,29.636,78.723,29.287,78.043,29.354z"/>
</g>
<g>
</g>
<g>
</g>
<g>
</g>
<g>
</g>
<g>
</g>
<g>
</g>
<g>
</g>
<g>
</g>
<g>
</g>
<g>
</g>
<g>
</g>
<g>
</g>
<g>
</g>
<g>
</g>
<g>
</g>
</svg>
