<?xml version="1.0" encoding="iso-8859-1"?>
<!-- Generator: Adobe Illustrator 19.0.0, SVG Export Plug-In . SVG Version: 6.00 Build 0)  -->
<svg version="1.1" id="Layer_1" xmlns="http://www.w3.org/2000/svg" xmlns:xlink="http://www.w3.org/1999/xlink" x="0px" y="0px"
	 height="25px" width="25px" viewBox="0 0 507.991 507.991" style="enable-background:new 0 0 507.991 507.991;" xml:space="preserve">
<path style="fill:#F2F2F2;" d="M479.205,203.741l-31.1-108.5l-6.1-21.1l-9.1-31.8c-4-11.6-14.2-19.8-26.5-21.3l-167.6-10.6
	c-10.9-1.2-21.6,3.2-28.5,11.7l-205.6,255.7c-7.4,9.2-5.9,22.6,3.3,29.9l230.4,185.3c9.2,7.4,22.6,5.9,29.9-3.3l85.4-106.2
	c-2.7-1.7-5.3-3.5-7.9-5.6c-35.4-28.5-54.2-92.2-43.6-161.8c7.1-45.9,25.5-85.5,49.5-112c-6.9-9.7-6.9-23.2,1.1-32.9
	c1.8-2.2,4.3-3.7,6.9-4.8c21.1-8.3,30.9-1.5,36.4,6.9c3.1,4.5,4.6,9.7,4.7,15c0.1,6-1.8,12.1-5.9,17.2c-7.6,9.5-20.3,12.4-31.1,8.1
	c-22,24-39.3,61.3-45.9,104.9c-10.6,69.6,9.4,132.4,45.7,152.5l110.1-137C480.805,225.641,482.805,214.141,479.205,203.741z"/>
<g>
	
		<rect x="64.993" y="350.69" transform="matrix(0.7793 0.6266 -0.6266 0.7793 262.2965 -14.3274)" style="fill:#40596B;" width="172.994" height="29.099"/>
	
		<rect x="133.958" y="265.001" transform="matrix(0.7793 0.6266 -0.6266 0.7793 223.821 -76.4516)" style="fill:#40596B;" width="172.994" height="29.099"/>
	
		<rect x="242.803" y="129.534" transform="matrix(0.7793 0.6266 -0.6266 0.7793 162.9538 -174.5505)" style="fill:#40596B;" width="172.994" height="29.099"/>
	
		<rect x="92.524" y="319.053" transform="matrix(0.7793 0.6266 -0.6266 0.7793 240.9721 -31.6495)" style="fill:#40596B;" width="145.795" height="14.5"/>
	
		<rect x="112.516" y="294.26" transform="matrix(0.7793 0.6266 -0.6266 0.7793 229.8482 -49.6482)" style="fill:#40596B;" width="145.795" height="14.5"/>
	
		<rect x="161.488" y="233.364" transform="matrix(0.7793 0.6266 -0.6266 0.7793 202.4964 -93.773)" style="fill:#40596B;" width="145.795" height="14.5"/>
	
		<rect x="181.402" y="208.509" transform="matrix(0.7793 0.6266 -0.6266 0.7793 191.3161 -111.7367)" style="fill:#40596B;" width="145.795" height="14.5"/>
	
		<rect x="201.394" y="183.726" transform="matrix(0.7793 0.6266 -0.6266 0.7793 180.1985 -129.7332)" style="fill:#40596B;" width="145.795" height="14.5"/>
	
		<rect x="221.308" y="158.87" transform="matrix(0.7793 0.6266 -0.6266 0.7793 169.0183 -147.6969)" style="fill:#40596B;" width="145.795" height="14.5"/>
</g>
<path style="fill:#FF7058;" d="M493.705,130.341c-11.9-28.5-29.9-48-51.7-56.2l6.1,21.1c1.3,0.9,2.7,1.8,3.9,2.8
	c10.8,8.7,20,21.7,27,38.4c12.6,30.3,16.3,68.8,10.2,108.3c-6.1,39.6-21,75.2-42.2,100.4c-20.2,24.1-43.5,35.5-65.7,32.1
	c-6.2-1-12.1-3-17.6-6.1c-36.3-20.1-56.3-82.9-45.7-152.5c6.6-43.5,23.9-80.9,45.9-104.9c11.3-12.4,23.9-21.2,37-25.4
	c0-5.3-1.6-10.5-4.7-15c-15.8,5.3-31,16-44.5,30.8c-23.9,26.4-42.4,66-49.5,112c-10.6,69.6,8.1,133.3,43.6,161.8
	c2.5,2,5.1,3.9,7.9,5.6c7.7,4.8,16.2,8,25.2,9.4c27.8,4.3,56.3-9.1,80.2-37.5c23-27.4,39.3-65.8,45.8-108.2
	C511.505,204.841,507.405,163.341,493.705,130.341z"/>
<g>
</g>
<g>
</g>
<g>
</g>
<g>
</g>
<g>
</g>
<g>
</g>
<g>
</g>
<g>
</g>
<g>
</g>
<g>
</g>
<g>
</g>
<g>
</g>
<g>
</g>
<g>
</g>
<g>
</g>
</svg>
