<?xml version="1.0" encoding="iso-8859-1"?>
<!-- Generator: Adobe Illustrator 19.0.0, SVG Export Plug-In . SVG Version: 6.00 Build 0)  -->
<svg version="1.1" id="Layer_1" xmlns="http://www.w3.org/2000/svg" xmlns:xlink="http://www.w3.org/1999/xlink" x="0px" y="0px"
	height="33px" width="50px"  viewBox="0 0 512 512" style="enable-background:new 0 0 512 512;" xml:space="preserve">
<path style="fill:#A2A9B0;" d="M450.425,244.625l-54.851-67.585c-11.693-14.408-29.043-22.672-47.599-22.672h-42.08
	c-8.667,0-15.694,7.027-15.694,15.694v84.453c0,8.667,7.027,15.694,15.694,15.694h132.343c6.053,0,11.567-3.481,14.169-8.946
	C455.011,255.799,454.239,249.325,450.425,244.625z"/>
<path style="fill:#CFCDCF;" d="M349.976,154.367h-44.081c-8.667,0-15.694,7.027-15.694,15.694v84.453
	c0,8.667,7.027,15.694,15.694,15.694h44.26L349.976,154.367z"/>
<path style="fill:#555559;" d="M350.023,208.941c-8.667,0-15.694,7.027-15.694,15.694v19.944c0,8.667,7.027,15.694,15.694,15.694
	s15.694-7.027,15.694-15.694v-19.944C365.718,215.968,358.691,208.941,350.023,208.941z"/>
<path style="fill:#AEADB3;" d="M350.023,208.941c-8.667,0-15.694,7.027-15.694,15.694v19.944c0,8.667,7.027,15.694,15.694,15.694
	V208.941z"/>
<path style="fill:#CFCDCF;" d="M66.091,202.657H15.694C7.027,202.657,0,195.63,0,186.962s7.027-15.694,15.694-15.694h50.397
	c8.667,0,15.694,7.027,15.694,15.694S74.759,202.657,66.091,202.657z"/>
<path style="fill:#FF9900;" d="M467.818,238.821H305.895c-8.667,0-15.694,7.027-15.694,15.694v84.453
	c0,8.667,7.027,15.694,15.694,15.694h190.411c8.667,0,15.694-7.027,15.694-15.694v-55.965
	C512,258.641,492.18,238.821,467.818,238.821z"/>
<path style="fill:#FAD52A;" d="M282.044,117.651H85.212c-8.667,0-15.694,7.027-15.694,15.694v210.59
	c0,8.667,7.027,15.694,15.694,15.694h220.682c8.667,0,15.694-7.027,15.694-15.694v-186.74
	C321.589,135.391,303.85,117.651,282.044,117.651z"/>
<path style="fill:#FFEA5E;" d="M195.554,117.651H85.212c-8.667,0-15.694,7.027-15.694,15.694v210.59
	c0,8.667,7.027,15.694,15.694,15.694h110.341L195.554,117.651z"/>
<path style="fill:#555559;" d="M422.479,394.349c-27.798,0-50.412-22.616-50.412-50.414c0-27.798,22.615-50.412,50.412-50.412
	s50.413,22.615,50.413,50.412C472.893,371.734,450.277,394.349,422.479,394.349z"/>
<path style="fill:#AEADB3;" d="M422.479,394.349c-27.798,0-50.412-22.616-50.412-50.414c0-27.798,22.615-50.412,50.412-50.412
	V394.349z"/>
<circle style="fill:#FF9900;" cx="422.482" cy="343.937" r="19.022"/>
<path style="fill:#FAD52A;" d="M422.48,324.912c-10.507,0-19.025,8.518-19.025,19.025c0,10.507,8.518,19.025,19.025,19.025V324.912z
	"/>
<path style="fill:#B1B0BC;" d="M153.809,259.811H37.075c-8.667,0-15.694-7.027-15.694-15.694s7.027-15.694,15.694-15.694H153.81
	c8.667,0,15.694,7.027,15.694,15.694S162.478,259.811,153.809,259.811z"/>
<path style="fill:#CFCDCF;" d="M95.442,259.811H37.075c-8.667,0-15.694-7.027-15.694-15.694s7.027-15.694,15.694-15.694h58.367
	v31.389H95.442z"/>
<path style="fill:#555559;" d="M173.965,394.349c-27.798,0-50.412-22.616-50.412-50.414c0-27.798,22.615-50.412,50.412-50.412
	s50.413,22.615,50.413,50.412C224.378,371.734,201.763,394.349,173.965,394.349z"/>
<path style="fill:#AEADB3;" d="M173.965,394.349c-27.798,0-50.412-22.616-50.412-50.414c0-27.798,22.615-50.412,50.412-50.412
	V394.349z"/>
<circle style="fill:#FF9900;" cx="173.967" cy="343.937" r="19.022"/>
<path style="fill:#FAD52A;" d="M173.965,324.912c-10.507,0-19.025,8.518-19.025,19.025c0,10.507,8.518,19.025,19.025,19.025V324.912
	z"/>
<g>
</g>
<g>
</g>
<g>
</g>
<g>
</g>
<g>
</g>
<g>
</g>
<g>
</g>
<g>
</g>
<g>
</g>
<g>
</g>
<g>
</g>
<g>
</g>
<g>
</g>
<g>
</g>
<g>
</g>
</svg>
